<mxfile host="drawio-plugin" modified="2024-03-20T15:39:00.566Z" agent="5.0 (Windows NT 10.0; Win64; x64) AppleWebKit/537.36 (KHTML, like Gecko) Chrome/111.0.0.0 Safari/537.36" etag="RlDAJNr_s9yTFsT2O6ft" version="20.5.3" type="embed"><diagram name="Page-1" id="WVWQNja5HS1z5ARG1pEx"><mxGraphModel dx="1524" dy="656" grid="1" gridSize="10" guides="1" tooltips="1" connect="1" arrows="1" fold="1" page="1" pageScale="1" pageWidth="850" pageHeight="1100" math="0" shadow="0"><root><mxCell id="0"/><mxCell id="1" parent="0"/><mxCell id="66o87MEIlyBnLck-QCFl-2" value="" style="shape=mxgraph.cisco.servers.fileserver;sketch=0;html=1;pointerEvents=1;dashed=0;fillColor=#036897;strokeColor=#ffffff;strokeWidth=2;verticalLabelPosition=bottom;verticalAlign=top;align=center;outlineConnect=0;" parent="1" vertex="1"><mxGeometry x="73.5" y="332.5" width="43" height="62" as="geometry"/></mxCell><mxCell id="66o87MEIlyBnLck-QCFl-4" value="" style="shape=mxgraph.cisco.routers.router;sketch=0;html=1;pointerEvents=1;dashed=0;fillColor=#036897;strokeColor=#ffffff;strokeWidth=2;verticalLabelPosition=bottom;verticalAlign=top;align=center;outlineConnect=0;" parent="1" vertex="1"><mxGeometry x="476.5" y="690.5" width="78" height="53" as="geometry"/></mxCell><mxCell id="66o87MEIlyBnLck-QCFl-6" value="" style="shape=mxgraph.cisco.computers_and_peripherals.pc;sketch=0;html=1;pointerEvents=1;dashed=0;fillColor=#036897;strokeColor=#ffffff;strokeWidth=2;verticalLabelPosition=bottom;verticalAlign=top;align=center;outlineConnect=0;" parent="1" vertex="1"><mxGeometry x="680" y="682" width="78" height="70" as="geometry"/></mxCell><mxCell id="66o87MEIlyBnLck-QCFl-7" value="Sieve Node" style="text;html=1;align=center;verticalAlign=middle;resizable=0;points=[];autosize=1;strokeColor=none;fillColor=none;" parent="1" vertex="1"><mxGeometry x="50" y="390" width="90" height="30" as="geometry"/></mxCell><mxCell id="66o87MEIlyBnLck-QCFl-8" value="" style="shape=mxgraph.cisco.servers.fileserver;sketch=0;html=1;pointerEvents=1;dashed=0;fillColor=#036897;strokeColor=#ffffff;strokeWidth=2;verticalLabelPosition=bottom;verticalAlign=top;align=center;outlineConnect=0;" parent="1" vertex="1"><mxGeometry x="183.5" y="440" width="43" height="62" as="geometry"/></mxCell><mxCell id="66o87MEIlyBnLck-QCFl-9" value="Sieve Node" style="text;html=1;align=center;verticalAlign=middle;resizable=0;points=[];autosize=1;strokeColor=none;fillColor=none;" parent="1" vertex="1"><mxGeometry x="160" y="497.5" width="90" height="30" as="geometry"/></mxCell><mxCell id="66o87MEIlyBnLck-QCFl-10" value="" style="shape=mxgraph.cisco.servers.fileserver;sketch=0;html=1;pointerEvents=1;dashed=0;fillColor=#036897;strokeColor=#ffffff;strokeWidth=2;verticalLabelPosition=bottom;verticalAlign=top;align=center;outlineConnect=0;" parent="1" vertex="1"><mxGeometry x="83.5" y="200" width="43" height="62" as="geometry"/></mxCell><mxCell id="66o87MEIlyBnLck-QCFl-11" value="Sieve Node" style="text;html=1;align=center;verticalAlign=middle;resizable=0;points=[];autosize=1;strokeColor=none;fillColor=none;" parent="1" vertex="1"><mxGeometry x="60" y="257.5" width="90" height="30" as="geometry"/></mxCell><mxCell id="66o87MEIlyBnLck-QCFl-12" value="" style="shape=mxgraph.cisco.servers.fileserver;sketch=0;html=1;pointerEvents=1;dashed=0;fillColor=#036897;strokeColor=#ffffff;strokeWidth=2;verticalLabelPosition=bottom;verticalAlign=top;align=center;outlineConnect=0;" parent="1" vertex="1"><mxGeometry x="243.5" y="70" width="43" height="62" as="geometry"/></mxCell><mxCell id="66o87MEIlyBnLck-QCFl-13" value="Sieve Node" style="text;html=1;align=center;verticalAlign=middle;resizable=0;points=[];autosize=1;strokeColor=none;fillColor=none;" parent="1" vertex="1"><mxGeometry x="220" y="127.5" width="90" height="30" as="geometry"/></mxCell><mxCell id="66o87MEIlyBnLck-QCFl-14" value="" style="shape=mxgraph.cisco.servers.fileserver;sketch=0;html=1;pointerEvents=1;dashed=0;fillColor=#036897;strokeColor=#ffffff;strokeWidth=2;verticalLabelPosition=bottom;verticalAlign=top;align=center;outlineConnect=0;" parent="1" vertex="1"><mxGeometry x="433.5" y="157.5" width="43" height="62" as="geometry"/></mxCell><mxCell id="66o87MEIlyBnLck-QCFl-15" value="Sieve Node" style="text;html=1;align=center;verticalAlign=middle;resizable=0;points=[];autosize=1;strokeColor=none;fillColor=none;" parent="1" vertex="1"><mxGeometry x="410" y="215" width="90" height="30" as="geometry"/></mxCell><mxCell id="66o87MEIlyBnLck-QCFl-16" value="" style="shape=mxgraph.cisco.servers.fileserver;sketch=0;html=1;pointerEvents=1;dashed=0;fillColor=#036897;strokeColor=#ffffff;strokeWidth=2;verticalLabelPosition=bottom;verticalAlign=top;align=center;outlineConnect=0;" parent="1" vertex="1"><mxGeometry x="463.5" y="302.5" width="43" height="62" as="geometry"/></mxCell><mxCell id="66o87MEIlyBnLck-QCFl-17" value="Sieve Node" style="text;html=1;align=center;verticalAlign=middle;resizable=0;points=[];autosize=1;strokeColor=none;fillColor=none;" parent="1" vertex="1"><mxGeometry x="440" y="360" width="90" height="30" as="geometry"/></mxCell><mxCell id="66o87MEIlyBnLck-QCFl-18" value="" style="shape=mxgraph.cisco.servers.fileserver;sketch=0;html=1;pointerEvents=1;dashed=0;fillColor=#036897;strokeColor=#ffffff;strokeWidth=2;verticalLabelPosition=bottom;verticalAlign=top;align=center;outlineConnect=0;" parent="1" vertex="1"><mxGeometry x="373.5" y="427.25" width="43" height="62" as="geometry"/></mxCell><mxCell id="66o87MEIlyBnLck-QCFl-19" value="Sieve Node" style="text;html=1;align=center;verticalAlign=middle;resizable=0;points=[];autosize=1;strokeColor=none;fillColor=none;" parent="1" vertex="1"><mxGeometry x="350" y="484.75" width="90" height="30" as="geometry"/></mxCell><mxCell id="66o87MEIlyBnLck-QCFl-22" value="" style="edgeStyle=none;orthogonalLoop=1;jettySize=auto;html=1;endArrow=classic;startArrow=classic;endSize=8;startSize=8;rounded=0;exitX=0.5;exitY=0;exitDx=0;exitDy=0;exitPerimeter=0;entryX=0.458;entryY=1.023;entryDx=0;entryDy=0;entryPerimeter=0;" parent="1" source="66o87MEIlyBnLck-QCFl-8" target="66o87MEIlyBnLck-QCFl-13" edge="1"><mxGeometry width="100" relative="1" as="geometry"><mxPoint x="210" y="400" as="sourcePoint"/><mxPoint x="242.98319327731087" y="157.5" as="targetPoint"/><Array as="points"/></mxGeometry></mxCell><mxCell id="66o87MEIlyBnLck-QCFl-23" value="" style="edgeStyle=none;orthogonalLoop=1;jettySize=auto;html=1;endArrow=classic;startArrow=classic;endSize=8;startSize=8;rounded=0;entryX=0.471;entryY=1.037;entryDx=0;entryDy=0;entryPerimeter=0;exitX=1;exitY=0.5;exitDx=0;exitDy=0;exitPerimeter=0;" parent="1" source="66o87MEIlyBnLck-QCFl-10" target="66o87MEIlyBnLck-QCFl-13" edge="1"><mxGeometry width="100" relative="1" as="geometry"><mxPoint x="200" y="320" as="sourcePoint"/><mxPoint x="242.30000000000018" y="159.33000000000004" as="targetPoint"/><Array as="points"/></mxGeometry></mxCell><mxCell id="66o87MEIlyBnLck-QCFl-24" value="" style="edgeStyle=none;orthogonalLoop=1;jettySize=auto;html=1;endArrow=classic;startArrow=classic;endSize=8;startSize=8;rounded=0;entryX=0.444;entryY=0.983;entryDx=0;entryDy=0;entryPerimeter=0;exitX=1;exitY=0.5;exitDx=0;exitDy=0;exitPerimeter=0;" parent="1" source="66o87MEIlyBnLck-QCFl-2" target="66o87MEIlyBnLck-QCFl-13" edge="1"><mxGeometry width="100" relative="1" as="geometry"><mxPoint x="210" y="310" as="sourcePoint"/><mxPoint x="238.9699999999998" y="162" as="targetPoint"/><Array as="points"/></mxGeometry></mxCell><mxCell id="66o87MEIlyBnLck-QCFl-25" value="" style="edgeStyle=none;orthogonalLoop=1;jettySize=auto;html=1;endArrow=classic;startArrow=classic;endSize=8;startSize=8;rounded=0;exitX=0.433;exitY=1.15;exitDx=0;exitDy=0;exitPerimeter=0;entryX=0.13;entryY=0.08;entryDx=0;entryDy=0;entryPerimeter=0;" parent="1" source="66o87MEIlyBnLck-QCFl-13" target="66o87MEIlyBnLck-QCFl-18" edge="1"><mxGeometry width="100" relative="1" as="geometry"><mxPoint x="230" y="350" as="sourcePoint"/><mxPoint x="330" y="350" as="targetPoint"/><Array as="points"/></mxGeometry></mxCell><mxCell id="66o87MEIlyBnLck-QCFl-27" value="" style="edgeStyle=none;orthogonalLoop=1;jettySize=auto;html=1;endArrow=classic;startArrow=classic;endSize=8;startSize=8;rounded=0;entryX=0.422;entryY=1.05;entryDx=0;entryDy=0;entryPerimeter=0;exitX=0;exitY=0.5;exitDx=0;exitDy=0;exitPerimeter=0;" parent="1" source="66o87MEIlyBnLck-QCFl-16" target="66o87MEIlyBnLck-QCFl-13" edge="1"><mxGeometry width="100" relative="1" as="geometry"><mxPoint x="240" y="520" as="sourcePoint"/><mxPoint x="340" y="520" as="targetPoint"/><Array as="points"/></mxGeometry></mxCell><mxCell id="66o87MEIlyBnLck-QCFl-28" value="" style="edgeStyle=none;orthogonalLoop=1;jettySize=auto;html=1;endArrow=classic;startArrow=classic;endSize=8;startSize=8;rounded=0;exitX=0.411;exitY=1.017;exitDx=0;exitDy=0;exitPerimeter=0;entryX=0;entryY=0.5;entryDx=0;entryDy=0;entryPerimeter=0;" parent="1" source="66o87MEIlyBnLck-QCFl-13" target="66o87MEIlyBnLck-QCFl-14" edge="1"><mxGeometry width="100" relative="1" as="geometry"><mxPoint x="410" y="470" as="sourcePoint"/><mxPoint x="510" y="470" as="targetPoint"/><Array as="points"/></mxGeometry></mxCell><mxCell id="66o87MEIlyBnLck-QCFl-29" value="" style="edgeStyle=none;orthogonalLoop=1;jettySize=auto;html=1;endArrow=classic;startArrow=classic;endSize=8;startSize=8;rounded=0;entryX=0;entryY=0.5;entryDx=0;entryDy=0;entryPerimeter=0;exitX=1;exitY=0.5;exitDx=0;exitDy=0;exitPerimeter=0;" parent="1" source="66o87MEIlyBnLck-QCFl-10" target="66o87MEIlyBnLck-QCFl-14" edge="1"><mxGeometry width="100" relative="1" as="geometry"><mxPoint x="190" y="231" as="sourcePoint"/><mxPoint x="390" y="520" as="targetPoint"/><Array as="points"/></mxGeometry></mxCell><mxCell id="66o87MEIlyBnLck-QCFl-30" value="" style="edgeStyle=none;orthogonalLoop=1;jettySize=auto;html=1;endArrow=classic;startArrow=classic;endSize=8;startSize=8;rounded=0;exitX=1;exitY=0.5;exitDx=0;exitDy=0;exitPerimeter=0;entryX=0;entryY=0.5;entryDx=0;entryDy=0;entryPerimeter=0;" parent="1" source="66o87MEIlyBnLck-QCFl-2" target="66o87MEIlyBnLck-QCFl-14" edge="1"><mxGeometry width="100" relative="1" as="geometry"><mxPoint x="310" y="580" as="sourcePoint"/><mxPoint x="340" y="210" as="targetPoint"/><Array as="points"/></mxGeometry></mxCell><mxCell id="66o87MEIlyBnLck-QCFl-31" value="" style="edgeStyle=none;orthogonalLoop=1;jettySize=auto;html=1;endArrow=classic;startArrow=classic;endSize=8;startSize=8;rounded=0;entryX=0;entryY=0.5;entryDx=0;entryDy=0;entryPerimeter=0;exitX=0.5;exitY=0;exitDx=0;exitDy=0;exitPerimeter=0;" parent="1" source="66o87MEIlyBnLck-QCFl-8" target="66o87MEIlyBnLck-QCFl-14" edge="1"><mxGeometry width="100" relative="1" as="geometry"><mxPoint x="230" y="600" as="sourcePoint"/><mxPoint x="330" y="600" as="targetPoint"/><Array as="points"/></mxGeometry></mxCell><mxCell id="66o87MEIlyBnLck-QCFl-32" value="" style="edgeStyle=none;orthogonalLoop=1;jettySize=auto;html=1;endArrow=classic;startArrow=classic;endSize=8;startSize=8;rounded=0;exitX=0.5;exitY=0;exitDx=0;exitDy=0;exitPerimeter=0;entryX=0;entryY=0.5;entryDx=0;entryDy=0;entryPerimeter=0;" parent="1" source="66o87MEIlyBnLck-QCFl-18" target="66o87MEIlyBnLck-QCFl-14" edge="1"><mxGeometry width="100" relative="1" as="geometry"><mxPoint x="230" y="580" as="sourcePoint"/><mxPoint x="350" y="210" as="targetPoint"/><Array as="points"/></mxGeometry></mxCell><mxCell id="66o87MEIlyBnLck-QCFl-33" value="" style="edgeStyle=none;orthogonalLoop=1;jettySize=auto;html=1;endArrow=classic;startArrow=classic;endSize=8;startSize=8;rounded=0;entryX=0;entryY=0.5;entryDx=0;entryDy=0;entryPerimeter=0;exitX=0;exitY=0.5;exitDx=0;exitDy=0;exitPerimeter=0;" parent="1" source="66o87MEIlyBnLck-QCFl-16" target="66o87MEIlyBnLck-QCFl-14" edge="1"><mxGeometry width="100" relative="1" as="geometry"><mxPoint x="390" y="310" as="sourcePoint"/><mxPoint x="350" y="210" as="targetPoint"/><Array as="points"/></mxGeometry></mxCell><mxCell id="66o87MEIlyBnLck-QCFl-34" value="" style="edgeStyle=none;orthogonalLoop=1;jettySize=auto;html=1;endArrow=classic;startArrow=classic;endSize=8;startSize=8;rounded=0;exitX=0;exitY=0.5;exitDx=0;exitDy=0;exitPerimeter=0;entryX=1;entryY=0.5;entryDx=0;entryDy=0;entryPerimeter=0;" parent="1" source="66o87MEIlyBnLck-QCFl-16" target="66o87MEIlyBnLck-QCFl-10" edge="1"><mxGeometry width="100" relative="1" as="geometry"><mxPoint x="410" y="430" as="sourcePoint"/><mxPoint x="510" y="430" as="targetPoint"/><Array as="points"/></mxGeometry></mxCell><mxCell id="66o87MEIlyBnLck-QCFl-35" value="" style="edgeStyle=none;orthogonalLoop=1;jettySize=auto;html=1;endArrow=classic;startArrow=classic;endSize=8;startSize=8;rounded=0;entryX=1;entryY=0.5;entryDx=0;entryDy=0;entryPerimeter=0;" parent="1" source="66o87MEIlyBnLck-QCFl-16" target="66o87MEIlyBnLck-QCFl-2" edge="1"><mxGeometry width="100" relative="1" as="geometry"><mxPoint x="420" y="430" as="sourcePoint"/><mxPoint x="520" y="430" as="targetPoint"/><Array as="points"/></mxGeometry></mxCell><mxCell id="66o87MEIlyBnLck-QCFl-36" value="" style="edgeStyle=none;orthogonalLoop=1;jettySize=auto;html=1;endArrow=classic;startArrow=classic;endSize=8;startSize=8;rounded=0;entryX=0.5;entryY=0;entryDx=0;entryDy=0;entryPerimeter=0;exitX=0;exitY=0.5;exitDx=0;exitDy=0;exitPerimeter=0;" parent="1" source="66o87MEIlyBnLck-QCFl-16" target="66o87MEIlyBnLck-QCFl-8" edge="1"><mxGeometry width="100" relative="1" as="geometry"><mxPoint x="410" y="430" as="sourcePoint"/><mxPoint x="510" y="430" as="targetPoint"/><Array as="points"/></mxGeometry></mxCell><mxCell id="66o87MEIlyBnLck-QCFl-37" value="" style="edgeStyle=none;orthogonalLoop=1;jettySize=auto;html=1;endArrow=classic;startArrow=classic;endSize=8;startSize=8;rounded=0;entryX=0.5;entryY=0;entryDx=0;entryDy=0;entryPerimeter=0;exitX=0;exitY=0.5;exitDx=0;exitDy=0;exitPerimeter=0;" parent="1" source="66o87MEIlyBnLck-QCFl-16" target="66o87MEIlyBnLck-QCFl-18" edge="1"><mxGeometry width="100" relative="1" as="geometry"><mxPoint x="340" y="490" as="sourcePoint"/><mxPoint x="440" y="490" as="targetPoint"/><Array as="points"/></mxGeometry></mxCell><mxCell id="66o87MEIlyBnLck-QCFl-38" value="" style="edgeStyle=none;orthogonalLoop=1;jettySize=auto;html=1;endArrow=classic;startArrow=classic;endSize=8;startSize=8;rounded=0;entryX=0.5;entryY=0;entryDx=0;entryDy=0;entryPerimeter=0;exitX=1;exitY=0.5;exitDx=0;exitDy=0;exitPerimeter=0;" parent="1" source="66o87MEIlyBnLck-QCFl-10" target="66o87MEIlyBnLck-QCFl-18" edge="1"><mxGeometry width="100" relative="1" as="geometry"><mxPoint x="230" y="630" as="sourcePoint"/><mxPoint x="330" y="630" as="targetPoint"/><Array as="points"/></mxGeometry></mxCell><mxCell id="66o87MEIlyBnLck-QCFl-39" value="" style="edgeStyle=none;orthogonalLoop=1;jettySize=auto;html=1;endArrow=classic;startArrow=classic;endSize=8;startSize=8;rounded=0;entryX=0.5;entryY=0;entryDx=0;entryDy=0;entryPerimeter=0;exitX=1;exitY=0.5;exitDx=0;exitDy=0;exitPerimeter=0;" parent="1" source="66o87MEIlyBnLck-QCFl-2" target="66o87MEIlyBnLck-QCFl-18" edge="1"><mxGeometry width="100" relative="1" as="geometry"><mxPoint x="240" y="580" as="sourcePoint"/><mxPoint x="340" y="580" as="targetPoint"/><Array as="points"/></mxGeometry></mxCell><mxCell id="66o87MEIlyBnLck-QCFl-40" value="" style="edgeStyle=none;orthogonalLoop=1;jettySize=auto;html=1;endArrow=classic;startArrow=classic;endSize=8;startSize=8;rounded=0;entryX=0.5;entryY=0;entryDx=0;entryDy=0;entryPerimeter=0;exitX=0.5;exitY=0;exitDx=0;exitDy=0;exitPerimeter=0;" parent="1" source="66o87MEIlyBnLck-QCFl-8" target="66o87MEIlyBnLck-QCFl-18" edge="1"><mxGeometry width="100" relative="1" as="geometry"><mxPoint x="260" y="600" as="sourcePoint"/><mxPoint x="360" y="600" as="targetPoint"/><Array as="points"/></mxGeometry></mxCell><mxCell id="66o87MEIlyBnLck-QCFl-41" value="" style="edgeStyle=none;orthogonalLoop=1;jettySize=auto;html=1;endArrow=classic;startArrow=classic;endSize=8;startSize=8;rounded=0;entryX=0.5;entryY=0;entryDx=0;entryDy=0;entryPerimeter=0;exitX=1;exitY=0.5;exitDx=0;exitDy=0;exitPerimeter=0;" parent="1" source="66o87MEIlyBnLck-QCFl-10" target="66o87MEIlyBnLck-QCFl-8" edge="1"><mxGeometry width="100" relative="1" as="geometry"><mxPoint x="280" y="620" as="sourcePoint"/><mxPoint x="380" y="620" as="targetPoint"/><Array as="points"/></mxGeometry></mxCell><mxCell id="66o87MEIlyBnLck-QCFl-42" value="" style="edgeStyle=none;orthogonalLoop=1;jettySize=auto;html=1;endArrow=classic;startArrow=classic;endSize=8;startSize=8;rounded=0;entryX=0.5;entryY=0;entryDx=0;entryDy=0;entryPerimeter=0;exitX=1;exitY=0.5;exitDx=0;exitDy=0;exitPerimeter=0;" parent="1" source="66o87MEIlyBnLck-QCFl-2" target="66o87MEIlyBnLck-QCFl-8" edge="1"><mxGeometry width="100" relative="1" as="geometry"><mxPoint x="230" y="560" as="sourcePoint"/><mxPoint x="330" y="560" as="targetPoint"/><Array as="points"/></mxGeometry></mxCell><mxCell id="66o87MEIlyBnLck-QCFl-43" value="" style="edgeStyle=none;orthogonalLoop=1;jettySize=auto;html=1;endArrow=classic;startArrow=classic;endSize=8;startSize=8;rounded=0;entryX=1;entryY=0.5;entryDx=0;entryDy=0;entryPerimeter=0;exitX=1;exitY=0.5;exitDx=0;exitDy=0;exitPerimeter=0;" parent="1" source="66o87MEIlyBnLck-QCFl-10" target="66o87MEIlyBnLck-QCFl-2" edge="1"><mxGeometry width="100" relative="1" as="geometry"><mxPoint x="110" y="560" as="sourcePoint"/><mxPoint x="210" y="560" as="targetPoint"/><Array as="points"/></mxGeometry></mxCell><mxCell id="66o87MEIlyBnLck-QCFl-45" value="" style="shape=mxgraph.cisco.servers.fileserver;sketch=0;html=1;pointerEvents=1;dashed=0;fillColor=#036897;strokeColor=#ffffff;strokeWidth=2;verticalLabelPosition=bottom;verticalAlign=top;align=center;outlineConnect=0;" parent="1" vertex="1"><mxGeometry x="267" y="686" width="43" height="62" as="geometry"/></mxCell><mxCell id="66o87MEIlyBnLck-QCFl-47" value="" style="rounded=1;whiteSpace=wrap;html=1;fillColor=none;strokeWidth=3;" parent="1" vertex="1"><mxGeometry x="48.5" y="40" width="480" height="510" as="geometry"/></mxCell><mxCell id="66o87MEIlyBnLck-QCFl-49" value="Server" style="text;html=1;align=center;verticalAlign=middle;resizable=0;points=[];autosize=1;strokeColor=none;fillColor=none;" parent="1" vertex="1"><mxGeometry x="258.5" y="748" width="60" height="30" as="geometry"/></mxCell><mxCell id="66o87MEIlyBnLck-QCFl-50" value="Client N" style="text;html=1;align=center;verticalAlign=middle;resizable=0;points=[];autosize=1;strokeColor=none;fillColor=none;" parent="1" vertex="1"><mxGeometry x="684" y="748" width="70" height="30" as="geometry"/></mxCell><mxCell id="66o87MEIlyBnLck-QCFl-52" value="" style="edgeStyle=none;orthogonalLoop=1;jettySize=auto;html=1;shape=flexArrow;rounded=1;startSize=8;endSize=8;strokeWidth=3;" parent="1" edge="1"><mxGeometry width="100" relative="1" as="geometry"><mxPoint x="290" y="560" as="sourcePoint"/><mxPoint x="289" y="680" as="targetPoint"/><Array as="points"/></mxGeometry></mxCell><mxCell id="66o87MEIlyBnLck-QCFl-53" value="" style="edgeStyle=none;orthogonalLoop=1;jettySize=auto;html=1;endArrow=classic;startArrow=classic;endSize=8;startSize=8;rounded=0;exitX=1;exitY=0.5;exitDx=0;exitDy=0;exitPerimeter=0;entryX=0;entryY=0.5;entryDx=0;entryDy=0;entryPerimeter=0;" parent="1" source="66o87MEIlyBnLck-QCFl-45" target="66o87MEIlyBnLck-QCFl-4" edge="1"><mxGeometry width="100" relative="1" as="geometry"><mxPoint x="320" y="720" as="sourcePoint"/><mxPoint x="470" y="720" as="targetPoint"/><Array as="points"/></mxGeometry></mxCell><mxCell id="66o87MEIlyBnLck-QCFl-54" value="" style="edgeStyle=none;orthogonalLoop=1;jettySize=auto;html=1;endArrow=classic;startArrow=classic;endSize=8;startSize=8;rounded=0;entryX=1;entryY=0.5;entryDx=0;entryDy=0;entryPerimeter=0;" parent="1" source="66o87MEIlyBnLck-QCFl-6" target="66o87MEIlyBnLck-QCFl-4" edge="1"><mxGeometry width="100" relative="1" as="geometry"><mxPoint x="430" y="810" as="sourcePoint"/><mxPoint x="530" y="810" as="targetPoint"/><Array as="points"/></mxGeometry></mxCell><mxCell id="66o87MEIlyBnLck-QCFl-58" value="The server is composed by&amp;nbsp;&lt;span style=&quot;background-color: initial;&quot;&gt;the sieve nodes&lt;/span&gt;" style="shape=note2;boundedLbl=1;whiteSpace=wrap;html=1;size=25;verticalAlign=top;align=center;" parent="1" vertex="1"><mxGeometry x="138.5" y="560" width="120" height="100" as="geometry"/></mxCell><mxCell id="2" value="" style="shape=mxgraph.cisco.computers_and_peripherals.pc;sketch=0;html=1;pointerEvents=1;dashed=0;fillColor=#036897;strokeColor=#ffffff;strokeWidth=2;verticalLabelPosition=bottom;verticalAlign=top;align=center;outlineConnect=0;" vertex="1" parent="1"><mxGeometry x="680" y="560" width="78" height="70" as="geometry"/></mxCell><mxCell id="3" value="Client 1" style="text;html=1;align=center;verticalAlign=middle;resizable=0;points=[];autosize=1;strokeColor=none;fillColor=none;" vertex="1" parent="1"><mxGeometry x="689" y="626" width="60" height="30" as="geometry"/></mxCell><mxCell id="4" value="" style="edgeStyle=none;orthogonalLoop=1;jettySize=auto;html=1;endArrow=classic;startArrow=classic;endSize=8;startSize=8;rounded=0;entryX=1;entryY=0.5;entryDx=0;entryDy=0;entryPerimeter=0;" edge="1" parent="1" source="2" target="66o87MEIlyBnLck-QCFl-4"><mxGeometry width="100" relative="1" as="geometry"><mxPoint x="430" y="688" as="sourcePoint"/><mxPoint x="554.5" y="595" as="targetPoint"/><Array as="points"/></mxGeometry></mxCell><mxCell id="5" value="..." style="text;html=1;align=center;verticalAlign=middle;resizable=0;points=[];autosize=1;strokeColor=none;fillColor=none;" vertex="1" parent="1"><mxGeometry x="704" y="647" width="30" height="30" as="geometry"/></mxCell></root></mxGraphModel></diagram></mxfile>